# xmcd
#
# Track frame offsets:
# 150
# 3406
# 23703
# 42621
# 60356
# 86289
# 107725
# 124444
# 146234
# 156794
# 180376
# 202041
# 220842
# 238928
# 260179
# 282750
#
# Disc length: 4094 seconds
#
# Revision: 3
# Processed by: cddbd v1.5.1PL0 Copyright (c) Steve Scherf et al.
# Submitted via: plextools 2.23
#
DISCID=ea0ffc10
DTITLE=Factory Noise and AG Inc. - BorderLine
DYEAR=2005
DGENRE=Soundtrack
TTITLE0=山西利治 - 妖々夢 〜 Snow or Cherry Petal
TTITLE1=どぶウサギ - Strawberry Crisis!
TTITLE2=九十九百太郎 - フォルスストロベリー
TTITLE3=椎名治美 - U.N.オーエンは彼女なのか？
TTITLE4=StudioA' - エクステンドアッシュ 〜 蓬莱人
TTITLE5=山西利治 - 幻視の夜 〜 Ghostly Eyes
TTITLE6=柏木るざりん - 幽霊楽団 〜 Phantom Ensemble
TTITLE7=九十九百太郎 - プリムローズシヴァ
TTITLE8=椎名治美 - ヴォヤージュ1970
TTITLE9=樋口秀樹 - 明治十七年の上海アリス
TTITLE10=山西利治 - 亡き王女の為のセプテット
TTITLE11=StudioA' - 遠野幻想物語
TTITLE12=九十九百太郎 - 天空アーミー
TTITLE13=石川直人 - ラクトガール 〜 少女密室
TTITLE14=椎名治美 - 幽雅に咲かせ、墨染の桜 〜 Border of Life
TTITLE15=StudioA' - もう歌しか聞こえない
EXTD=YEAR: 2005
EXTT0=
EXTT1=
EXTT2=
EXTT3=
EXTT4=
EXTT5=
EXTT6=
EXTT7=
EXTT8=
EXTT9=
EXTT10=
EXTT11=
EXTT12=
EXTT13=
EXTT14=
EXTT15=
PLAYORDER=
